<?xml version="1.0" encoding="UTF-8" standalone="no"?>
<!-- Created with Inkscape (http://www.inkscape.org/) -->

<svg
   version="1.1"
   id="svg1"
   width="553.82123"
   height="409.99008"
   viewBox="0 0 553.82123 409.99008"
   sodipodi:docname="DALL·E 2024-11-09 05.05.25 - A minimalist logo for a medical transport service named 'MedRide,' featuring a simple icon of a medical transport vehicle, like an ambulance or helico.webp"
   inkscape:export-filename="../dev/hackaton/sfscon2024/static/logo_without_text.svg"
   inkscape:export-xdpi="96"
   inkscape:export-ydpi="96"
   xmlns:inkscape="http://www.inkscape.org/namespaces/inkscape"
   xmlns:sodipodi="http://sodipodi.sourceforge.net/DTD/sodipodi-0.dtd"
   xmlns="http://www.w3.org/2000/svg"
   xmlns:svg="http://www.w3.org/2000/svg">
  <defs
     id="defs1" />
  <sodipodi:namedview
     id="namedview1"
     pagecolor="#ffffff"
     bordercolor="#000000"
     borderopacity="0.25"
     inkscape:showpageshadow="2"
     inkscape:pageopacity="0.0"
     inkscape:pagecheckerboard="0"
     inkscape:deskcolor="#d1d1d1"
     showgrid="false" />
  <g
     inkscape:groupmode="layer"
     inkscape:label="Image"
     id="g1"
     transform="translate(-123.27272,-160.91088)">
    <path
       style="fill:#000000"
       d="m 392.54258,557.18386 c -28.49693,-23.21547 -51.51983,-46.83867 -69.47151,-71.28291 -20.19451,-27.49824 -35.59003,-53.49501 -44.35216,-74.89273 -4.061,-9.91725 -5.35032,-12.01889 -9.95527,-16.22756 -2.90954,-2.65916 -6.58507,-7.30824 -8.16784,-10.33128 -3.43887,-6.56817 -3.5081,-6.58955 -20.39092,-6.29884 -15.35595,0.26442 -18.23016,-0.83982 -24.55733,-9.43466 -7.2655,-9.86949 -6.97811,-6.79994 -6.62993,-70.81254 0.29713,-54.628 0.41092,-57.71958 2.28,-61.94495 2.73708,-6.18762 6.22002,-10.48853 11.3546,-14.02121 7.72468,-5.31472 12.88423,-6.0295 44.01276,-6.09733 l 28.0399,-0.0611 3.00754,-4.14254 c 7.44844,-10.25937 29.07621,-26.04881 48.99246,-35.76714 20.81129,-10.15507 42.17863,-14.96134 66.5,-14.95819 53.55734,0.007 97.392,22.36804 130.2421,66.43962 7.147,9.58846 18.7102,32.57283 22.7821,45.28459 8.1024,25.2939 8.9656,56.05267 2.4869,88.61311 -4.5433,22.8334 -16.2273,50.40692 -33.8829,79.96166 -16.0435,26.85606 -27.0217,42.07042 -45.6282,63.23483 -26.41966,30.05163 -68.99587,66.45626 -77.72241,66.45626 -1.21575,0 -9.20222,-5.78415 -18.93989,-13.71709 z m 27.01296,-7.53291 c 33.53171,-25.57954 69.37654,-63.38255 90.79034,-95.75 34.427,-52.03756 48.3286,-90.483 48.2724,-133.5 -0.023,-17.75675 -1.6097,-27.00747 -7.9213,-46.18763 -5.1034,-15.50899 -9.9725,-25.20142 -19.2464,-38.31237 -19.714,-27.87066 -49.4789,-48.05771 -83.4491,-56.59643 -8.56567,-2.15307 -13.4135,-2.67789 -28.8378,-3.12199 -11.34293,-0.32659 -21.802,-0.095 -26.94033,0.59651 -25.37019,3.41429 -52.54169,15.78182 -71.76847,32.66652 -2.8875,2.53577 -5.25,5.02559 -5.25,5.53294 0,0.53304 8.58856,0.92245 20.34501,0.92245 19.03606,0 20.4608,-0.12794 22.14465,-1.98857 8.27012,-9.13839 35.44278,-17.01143 58.71246,-17.01143 10.25187,0 24.67709,2.32897 34.79788,5.61817 10.24731,3.33032 28.3188,12.54644 36.2532,18.48852 13.0312,9.75895 29.1358,29.45338 36.0691,44.10931 4.6842,9.9015 8.7212,26.29757 9.3032,37.784 0.4092,8.07646 1.0956,11.80904 2.9741,16.17143 4.1482,9.63389 6.5417,20.59393 6.592,30.18662 0.043,8.14108 -0.2262,9.38848 -3.3225,15.41159 -4.8956,9.52301 -8.7594,12.25305 -19.1662,13.5424 l -8.393,1.03983 -2.3214,4.37582 c -5.1959,9.79439 -18.3667,18.27231 -28.3867,18.27231 -3.1168,0 -7.3617,1.42872 -15.21248,5.12023 -34.85609,16.38956 -73.08973,16.26583 -106.20578,-0.34371 -8.77929,-4.40329 -25.05188,-17.11521 -29.68491,-23.18943 -1.5048,-1.9729 -3.08858,-3.58709 -3.51949,-3.58709 -0.43092,0 -1.25897,1.36397 -1.84012,3.03105 -0.58114,1.66707 -3.59994,5.69744 -6.70843,8.95637 -5.84942,6.13251 -9.038,7.7239 -20.18059,10.07198 -2.8875,0.60848 -5.25,1.65721 -5.25,2.3305 0,2.47852 13.07772,27.56197 22.21556,42.6101 10.20525,16.80591 26.21809,39.07054 36.67949,51 12.1441,13.84829 31.52147,33.16828 41.60495,41.48175 11.19908,9.23323 18.43682,14.43939 20.13971,14.48663 0.62684,0.0174 3.64677,-1.88088 6.71095,-4.21838 z M 286.38059,318.81345 c -3.23012,0 -3.46832,-2.14345 -3.48469,-12.57227 l -0.0153,-9.75 h -9.92857 c -12.13551,0 -13.07819,-0.63692 -13.05612,-8.82143 0.023,-8.5398 0.0611,-8.56397 12.48362,-7.92996 l 10.69713,0.54595 -0.67688,-8.64728 c -0.42317,-5.40614 -0.27601,-9.69324 0.39265,-11.43787 1.06498,-2.77871 1.10472,-2.78935 9.32885,-2.5 l 8.25932,0.29059 0.28383,10.75 0.28383,10.75 h 9.93099 c 11.46326,0 12.00135,0.39691 12.00135,8.85247 0,8.3033 0.23402,8.14753 -12.24069,8.14753 h -11.0267 l 0.47872,9.94173 c 0.2633,5.46795 0.19376,10.40282 -0.15454,10.96637 -0.73774,1.19371 -10.51652,1.41417 -13.55679,1.41417 z m 153.32429,82.68242 c 8.7169,-2.79318 14.23965,-5.75289 15.14703,-8.11748 0.34879,-0.90894 -0.41519,-2.29383 -1.91713,-3.47526 -1.37335,-1.08028 -3.89735,-4.14639 -5.60888,-6.81359 l -3.11189,-4.84945 -47.25456,0.45017 c -25.99002,0.24759 -47.46365,0.64287 -47.7192,0.87839 -1.83097,1.68751 8.60502,10.03068 18.46706,14.76371 15.6907,7.53034 31.67425,10.70183 50.99757,10.11904 10.45603,-0.31535 14.56552,-0.89372 21,-2.95553 z M 300.63916,386.91579 c 4.36214,-2.1299 7.95914,-6.65164 10.12852,-12.73243 1.79284,-5.02533 1.7614,-8.57054 -0.11585,-13.06453 -3.39724,-8.13274 -11.03079,-13.21788 -19.84201,-13.21788 -9.5305,0 -14.19099,2.94037 -18.22752,11.5 -2.96594,6.28941 -2.96794,9.70117 -0.009,16 5.40342,11.50399 17.73048,16.56146 28.06625,11.51484 z M 284.37919,373.5865 c -1.484,-1.57965 -2.17431,-3.5839 -2.17431,-6.31291 0,-7.5356 7.93024,-11.8709 14.02749,-7.66853 3.49323,2.40761 4.90399,4.43826 4.94071,7.11163 0.10483,7.63354 -11.58429,12.41517 -16.79389,6.86981 z m 205.39359,11.01608 c 13.4182,-9.24696 11.9904,-28.27452 -2.6834,-35.76054 -8.4866,-4.32954 -21.18901,-0.97137 -26.46134,6.99566 -4.80946,7.26758 -3.22044,17.96792 3.70763,24.96699 5.48086,5.53704 8.764,7.08838 15.01001,7.09252 4.7503,0.003 6.3964,-0.51696 10.4271,-3.29463 z m -17.64482,-11.62471 c -3.72649,-3.72648 -3.84084,-7.83277 -0.33419,-12.00019 2.18271,-2.59405 3.29301,-3.07673 7.07691,-3.07673 3.6665,0 5.0445,0.55647 7.5281,3.04006 2.5411,2.54112 2.9392,3.56689 2.4256,6.25 -1.5387,8.03726 -11.1239,11.35943 -16.69642,5.78686 z m -98.8416,-22.53291 c 0.3388,-58.39148 -0.33055,-107.20434 -1.50869,-110.02405 -0.70118,-1.67816 -2.93257,-4.50668 -4.95863,-6.28558 l -3.68375,-3.23438 -59.21521,-0.22681 c -32.56836,-0.12474 -61.65474,-0.11383 -64.6364,0.0242 -6.63573,0.3073 -10.90373,2.76708 -13.82747,7.96917 -2.15375,3.83207 -2.1736,4.3498 -2.30108,60.0198 -0.12805,55.91344 -0.1194,56.1673 2.01587,59.16601 4.02276,5.64945 5.31606,6.04758 19.6451,6.04758 h 13.1662 l 0.69478,-3.70349 c 1.65342,-8.81348 9.14258,-17.8317 18.37242,-22.1235 4.71725,-2.19349 7.06538,-2.62822 14.15538,-2.62073 7.21555,0.008 9.44623,0.44134 14.7618,2.87021 9.04039,4.13086 13.74932,9.97074 19.01146,23.57751 l 0.96683,2.5 23.62995,0.044 23.62996,0.044 z M 238.20488,255.9531 c -3.56288,-0.8285 -7.62332,-9.01894 -5.98697,-12.0765 1.43433,-2.68007 9.36036,-6.3093 11.97016,-5.48099 10.59166,3.36167 8.22888,20.86231 -5.98319,17.55749 z m 112.02701,-2.74495 c -1.64958,-2.09709 -2.05277,-3.81155 -1.82258,-7.75 0.28822,-4.93141 0.38861,-5.08019 4.03609,-5.98125 6.53521,-1.61444 11.03662,2.42616 10.93464,9.81526 -0.067,4.85626 -2.00117,6.60879 -7.29371,6.60879 -2.86564,0 -4.22987,-0.62749 -5.85444,-2.6928 z M 524.66578,363.5532 c 1.5338,-1.12157 1.8596,-2.82248 1.9411,-10.1352 l 0.098,-8.78744 -3.9556,-1.38363 c -9.2438,-3.23342 -19.3094,-18.34598 -12.2192,-18.34598 1.2789,0 4.933,2.025 8.1203,4.5 3.1873,2.475 6.191,4.5 6.6748,4.5 1.7578,0 0.8186,-4.48069 -1.7014,-8.11704 -3.111,-4.48911 -7.6032,-7.53216 -16.8955,-11.44513 -6.3767,-2.68516 -8.9102,-4.81456 -29.4578,-24.7592 -23.90618,-23.20472 -31.93961,-29.93648 -37.87338,-31.7367 -2.03072,-0.61609 -14.60472,-1.36422 -27.94222,-1.66251 l -24.25,-0.54234 v 54.13146 54.13146 h 28.86916 28.86916 l 0.58125,-3.58184 c 1.86796,-11.51091 11.77925,-21.82533 24.96685,-25.98236 10.57338,-3.33298 23.23598,0.84185 31.84278,10.49857 4.5218,5.07334 6.9244,9.7752 8.3047,16.25251 0.4528,2.12526 1.2512,2.77114 3.8193,3.08996 6.5292,0.81059 8.4017,0.69601 10.2077,-0.62459 z M 403.60747,326.50769 c -0.30841,-0.80371 -0.41267,-2.50651 -0.23167,-3.78401 0.32155,-2.26959 0.58074,-2.32273 11.32908,-2.32273 h 11 v 3.5 3.5 l -10.76833,0.28402 c -8.70933,0.22971 -10.87555,0.005 -11.32908,-1.17728 z m -0.40259,-38.10674 v -17.5 h 16.78856 c 14.36806,0 17.31237,0.26706 20.42175,1.85231 6.86403,3.49948 32.78969,29.1577 32.78969,32.45144 0,0.38294 -15.75,0.69625 -35,0.69625 h -35 z m 114.2259,9.39226 c -0.363,-5.81833 -5.6588,-22.82216 -9.4576,-30.36637 -13.2764,-26.36668 -40.54925,-46.45473 -72.7683,-53.59806 -16.22481,-3.59722 -42.76859,-1.863 -54.74868,3.57697 l -5.24867,2.38334 4.74867,6.4845 c 2.61178,3.56647 4.97368,6.51318 5.24868,6.54823 0.275,0.035 1.53903,-1.75556 2.80895,-3.97912 4.09304,-7.16669 6.44048,-7.93373 24.29317,-7.93801 14.53001,-0.003 15.8356,0.15142 19,2.25433 4.29193,2.85222 7.89788,9.87258 7.89788,15.37627 0,3.98588 0.2001,4.27448 3.75,5.40857 10.54006,3.36723 15.52761,7.2023 37.75,29.02701 14.753,14.48894 23.8872,22.66805 27.7289,24.82949 3.1509,1.77275 6.0046,3.66936 6.3416,4.21468 1.4313,2.31588 2.9161,-0.0447 2.6554,-4.22183 z m -93.48566,-55.91939 c 0.14145,-0.81008 -0.31827,-2.59787 -1.02161,-3.97287 -1.25483,-2.45315 -1.46564,-2.49345 -11.24871,-2.15042 -5.48346,0.19226 -10.48259,0.7685 -11.10918,1.28053 -1.05761,0.86424 -2.41974,5.4797 -1.7992,6.09639 0.15137,0.15042 5.82064,0.26129 12.59837,0.24637 10.05523,-0.0221 12.37048,-0.29819 12.58033,-1.5 z M 194.98534,522.16715 c -6.91928,-0.54729 -10.64636,-5.91122 -7.80124,-11.22737 0.93265,-1.74267 3.94531,-1.83035 63.33787,-1.84348 34.29726,-0.008 62.99411,0.37911 63.77078,0.85933 2.16078,1.33601 1.69679,9.89839 -0.62852,11.5987 -1.49904,1.09613 -12.26936,1.31309 -57.90048,1.16637 -30.83238,-0.0991 -58.18266,-0.34823 -60.77841,-0.55355 z m -70.11928,-75.0881 c -2.21115,-2.44329 -2.10594,-6.73334 0.22222,-9.0615 1.71086,-1.71086 4.29895,-1.9467 28.25,-2.57426 14.50163,-0.37997 44.94579,-0.54493 67.65369,-0.36659 46.47465,0.36499 43.41746,-0.22722 42.97286,8.32425 l -0.25995,5 -68.58882,0.25684 c -65.45235,0.2451 -68.66478,0.17291 -70.25,-1.57874 z m 33.41555,-115.76699 c -4.15497,-3.49618 -4.36123,-9.25556 -0.44187,-12.33853 2.36881,-1.86331 3.99214,-2.07258 16.07692,-2.07258 h 13.44207 l 2.92307,2.92308 c 3.98408,3.98408 3.92967,8.05214 -0.15365,11.48803 -2.96059,2.49117 -3.56161,2.58889 -15.92327,2.58889 -12.36166,0 -12.96268,-0.0977 -15.92327,-2.58889 z m 433.92327,0.38211 c -4.2686,-2.87526 -5.2471,-8.03153 -2.2311,-11.75619 1.7186,-2.12236 2.8471,-2.3485 14.0151,-2.80845 14.0507,-0.57868 17.0756,0.2386 19.8329,5.35857 2.0926,3.88584 1.5641,5.44006 -3.0138,8.86267 -2.3038,1.72238 -4.5298,2.1022 -13.9227,2.37557 -10.377,0.302 -11.4319,0.15597 -14.6804,-2.03217 z m 54.2742,1.48519 c -6.1287,-0.76284 -9.3862,-8.5216 -5.5242,-13.1575 1.6134,-1.93673 2.9069,-2.12097 16.575,-2.36079 l 14.8249,-0.26012 2.4251,2.80576 c 3.2401,3.74885 3.0809,7.19218 -0.4981,10.77116 -2.8954,2.89546 -3.0253,2.92157 -13.75,2.76304 -5.9548,-0.088 -12.2785,-0.34072 -14.0527,-0.56155 z"
       id="path1"
       sodipodi:nodetypes="ssssssssssscssssssssssscccsssssssssssssccsscssssssssssssssssscssscssscccssscsssssssscssssscsssscccssssssssscssssscsssscscsssscsscsscccssssssssssssscssssssssscccccssssssssscccssccssssccccsscssscsssssscssssssssscssssssssscssssscsssssssssssssscssss" />
    <path
       id="path2"
       style="fill:#d40000;stroke-width:0;stroke-linecap:round;paint-order:markers fill stroke"
       d="m 404.33594,173.31445 c -30.41344,0.57625 -60.21658,12.62639 -83.24466,32.35602 -1.74367,1.52849 -3.53392,3.04762 -5.14232,4.70158 -0.82246,1.67704 -1.11857,3.87765 0.1487,5.42092 1.58606,1.93833 4.28911,2.21219 6.62358,2.37126 1.84623,0.0884 3.7013,0.089 5.54104,0.21507 8.55572,-0.41211 17.21567,1.27357 25.69105,-0.50545 2.0476,-0.4545 4.11138,-1.03662 5.96806,-2.01101 6.86538,-5.79504 15.46698,-9.01798 24.09374,-11.13595 1.98299,-0.49787 4.09397,-0.94117 6.03175,-1.33627 4.37766,-0.82347 8.75658,-1.68066 13.17933,-2.22246 10.01451,-1.1409 20.17979,-0.84985 30.12926,0.74004 0.48822,0.086 1.47632,0.25284 1.96289,0.33203 31.17634,5.52092 60.24985,24.12425 77.46235,50.95138 4.44701,6.05228 7.83902,12.83417 10.30971,19.91598 2.58872,7.3491 4.2865,15.01811 5.63415,22.62883 0.94933,5.35622 1.7051,10.67322 2.53324,16.04678 1.84892,7.00554 3.87763,13.96979 5.37305,21.06641 1.61564,7.71624 2.58637,15.86726 1.62522,23.80997 -0.20028,1.49591 -0.30949,3.0341 -1.0257,4.39279 -1.89118,4.39241 -4.43398,8.80083 -8.53841,11.46259 -2.06534,1.3611 -4.53721,1.9291 -6.98504,1.987 -5.29401,0.41292 -10.77201,2.25633 -14.36809,6.33536 -1.06889,1.14738 -1.83922,2.52978 -2.58852,3.88617 -6.71857,8.08331 -16.51257,13.70311 -27.02144,14.80248 -8.02622,2.77058 -15.91983,5.94502 -23.95253,8.71236 -11.23277,3.89291 -23.01234,7.12885 -35.03724,7.3566 -2.85992,0.10593 -5.7129,-0.22125 -8.57104,-0.0806 -3.41495,0.039 -6.68737,-0.094 -10.06846,-0.38933 -1.24527,-0.10479 -2.86268,-0.29323 -4.08984,-0.44336 -1.81314,-0.24003 -3.62888,-0.52188 -5.47852,-0.85937 -0.50931,-0.10522 -1.25351,-0.23741 -1.81605,-0.35597 -2.96564,-0.5985 -5.96832,-1.35313 -8.78765,-2.18499 -17.62864,-5.1985 -33.86207,-15.07742 -46.51739,-28.41217 -1.53259,-2.5217 -4.07178,-4.8616 -7.18827,-4.85136 -2.63364,-0.0237 -4.81249,2.04373 -5.69493,4.40358 -0.41652,0.89423 -0.44311,1.94461 -1.15382,2.68355 -4.84892,6.86848 -12.20857,12.11909 -20.54157,13.6825 -1.99381,0.37634 -4.17049,0.40412 -5.86104,1.68186 -2.48035,1.66249 -3.27454,5.02634 -2.42311,7.78796 0.36292,1.43354 1.16615,2.70125 2.02256,3.87962 19.15018,39.70676 44.19781,76.79227 75.44048,107.99802 6.19455,6.24304 12.7635,12.09214 19.26884,18.00575 7.90554,7.15764 16.0875,14.21241 25.5957,19.17579 16.8694,-10.65575 31.59352,-24.26535 45.80681,-38.16952 3.91571,-3.87809 7.89461,-7.69515 11.72524,-11.65738 27.66496,-28.89751 51.3696,-61.76814 68.78193,-97.83678 4.6125,-9.59378 8.83218,-19.3855 12.44913,-29.3987 8.55271,-24.75735 12.04291,-51.43598 8.84611,-77.4986 -1.75181,-14.365 -5.63471,-28.55101 -11.67172,-41.67145 -12.68527,-29.07695 -34.99126,-53.81006 -62.48167,-69.61016 -14.30781,-8.21063 -30.07166,-13.98738 -46.39602,-16.48766 -10.52881,-1.29981 -21.14645,-1.69006 -31.74875,-1.67671 -1.28322,-0.0234 -2.56689,-0.0116 -3.85012,0.005 z" />
    <path
       style="fill:#000080;stroke-width:0;stroke-linecap:round;paint-order:markers fill stroke"
       d="m 407.25916,235.21574 c -4.51632,-1.39136 -13.00774,3.59292 -8.15468,8.19267 8.03218,0.86542 17.16304,2.39243 24.78154,-0.5943 3.71401,-6.11723 -5.94251,-8.10901 -10.22906,-7.45329 -2.13039,-0.11121 -4.26427,-0.18376 -6.3978,-0.14508 z"
       id="path3" />
    <path
       style="fill:#333333;stroke-width:0;stroke-linecap:round;paint-order:markers fill stroke"
       d="m 289.64993,347.09634 c -16.12216,-0.263 -26.23988,21.16774 -15.25916,33.15332 6.97933,10.83086 24.10343,13.45155 32.32565,2.62144 6.5272,-7.07032 8.71404,-18.21679 2.09498,-26.00543 -4.05855,-6.44138 -11.59816,-10.14387 -19.16147,-9.76933 z m 2.0597,12.71913 c 5.52567,0.16053 12.15413,7.65416 5.37042,11.67164 -5.01652,6.78153 -16.68215,1.61074 -13.44369,-6.75441 1.05848,-3.33678 4.7088,-5.22916 8.07327,-4.91723 z"
       id="path5" />
    <path
       style="fill:#333333;stroke-width:0;stroke-linecap:round;paint-order:markers fill stroke"
       d="m 476.40163,346.16282 c -11.34367,0.49122 -21.70744,11.28747 -18.61601,22.97965 0.91112,9.16741 9.25747,16.84432 17.66621,19.4844 16.85482,3.50915 31.61107,-18.32229 20.87381,-32.28766 -4.36148,-6.43655 -12.08142,-10.65507 -19.92401,-10.17639 z m 2.4749,13.40027 c 6.1629,-0.51284 12.41345,6.49113 6.48846,11.49797 -5.15964,7.41654 -19.65836,-0.0886 -13.1289,-8.50475 1.25271,-2.37936 4.13834,-3.13904 6.64044,-2.99322 z"
       id="path6" />
    <path
       style="fill:#d40000;stroke-width:0;stroke-linecap:round;paint-order:markers fill stroke"
       d="m 406.04885,233.7232 c -4.55675,-0.72235 -12.97929,6.14443 -7.32429,9.70692 7.92639,2.73751 18.0137,3.71772 25.51696,-0.54274 4.90933,-4.25815 -3.42349,-8.39621 -7.29987,-8.34193 -3.5888,-0.64095 -7.25041,-0.87615 -10.8928,-0.82225 z"
       id="path9" />
    <path
       style="fill:#f2f2f2;stroke-width:0;stroke-linecap:round;paint-order:markers fill stroke"
       d="m 176.54274,70.097693 c -22.08151,0.768285 -44.53563,-1.62211 -66.39349,2.07327 -11.623131,4.124536 -8.89166,18.725167 -9.40298,28.268657 -0.17932,31.68993 -0.10156,63.39744 -0.0733,95.07734 8.11935,10.41393 22.49502,5.66938 33.61194,6.66757 2.46121,-17.51416 20.33887,-30.81906 37.8806,-27.53595 14.36815,0.35587 25.08233,11.91041 29.6445,24.69742 4.65348,6.60425 14.63329,2.43528 21.32131,3.98633 8.39685,0.0974 16.88611,0.3172 25.22415,0.21991 1.82025,-41.62825 0.86737,-83.31153 -0.27951,-124.936229 -4.70177,-6.927001 -10.8167,-10.578571 -19.34329,-8.536215 -17.39665,0.006 -34.79331,0.01193 -52.18996,0.0179 z m -57.10176,7.196744 c 9.05604,-0.275954 11.22675,14.032458 3.1289,17.427408 -8.64892,6.848005 -20.45756,-10.276226 -10.04885,-15.411126 2.14024,-1.097565 4.47674,-1.959709 6.91995,-2.016282 z m 111.51153,0.466757 c 7.35448,-0.785314 11.02717,6.784902 8.92809,13.001357 -1.42828,6.767694 -14.87984,5.867637 -14.50747,-1.712347 -0.1875,-4.741198 -1.73547,-12.079014 5.57938,-11.28901 z m -53.19674,28.974216 c -2.90571,9.99987 2.69395,12.16544 11.5658,11.2266 4.29708,0.53477 11.76227,-0.21583 10.51289,6.51832 -0.005,4.03482 1.5189,12.10371 -5.18317,11.08276 -5.85847,0.87389 -11.88065,0.96276 -17.69878,1.65536 -0.62384,6.0393 2.77644,14.24338 -0.79512,19.43555 -4.61118,0.9947 -11.29492,3.51376 -15.38127,0.37449 -2.56856,-6.24872 -1.72833,-13.39492 -2.72456,-19.93487 -6.63996,-1.47949 -15.31689,0.0929 -20.93894,-3.95929 -1.52957,-5.23501 -2.26568,-15.67215 5.91859,-15.07192 5.12974,-0.19163 10.28525,0.92429 15.327,1.11805 2.29361,-6.70946 -3.71043,-21.664338 4.98108,-22.016839 9.81384,0.14847 17.26474,-4.544877 14.41648,9.571789 z"
       id="path11"
       transform="translate(123.27272,160.91088)" />
    <path
       style="fill:#f2f2f2;stroke-width:0;stroke-linecap:round;paint-order:markers fill stroke"
       d="m 263.89959,94.922659 c 0.06,35.763201 -0.1194,71.625521 0.0896,107.327001 18.97494,-0.044 38.00818,0.087 56.94708,-0.0651 3.07541,-19.77771 26.6856,-37.38578 46.01899,-27.41655 10.69377,4.65356 17.71669,14.40992 21.45455,25.06377 3.45019,5.6739 14.15043,4.73954 14.20624,-2.9308 0.81645,-5.56336 1.85346,-13.81033 -5.47083,-15.1099 -5.2987,-4.04095 -13.44555,-10.02979 -11.70963,-17.54953 4.91292,-2.36868 9.43068,4.95214 14.19539,5.87517 3.9275,1.11993 0.7531,-4.78024 -0.84125,-5.64722 -11.10592,-9.70165 -25.2813,-15.30169 -35.48287,-26.25926 C 348.26173,125.20596 334.82982,109.91689 318.13301,99.009528 300.688,94.355054 281.71862,96.287899 263.89963,94.922689 Z m 30.30937,14.244231 c 12.10946,-0.79752 25.29815,0.86133 33.57458,10.76641 7.29636,7.69109 16.83032,14.95575 22.07535,23.81432 -23.21873,2.83891 -47.05821,0.64663 -70.49661,1.35686 0,-11.98191 0,-23.96382 0,-35.94573 4.94889,0.003 9.89778,0.005 14.84668,0.008 z m 8.5943,50.01086 c 3.51231,11.18149 -7.63495,7.86421 -14.9688,8.09498 -3.93238,0.6923 -11.32776,-1.4092 -7.64993,-6.59973 6.78134,-3.09358 15.38089,-0.67059 22.61873,-1.49525 z"
       id="path12"
       transform="translate(123.27272,160.91088)" />
  </g>
</svg>
