<?xml version="1.0" encoding="UTF-8" standalone="no"?>
<!-- Created with Inkscape (http://www.inkscape.org/) -->

<svg
   version="1.1"
   id="svg1"
   width="139.7413"
   height="108.22062"
   viewBox="0 0 139.7413 108.22062"
   xmlns="http://www.w3.org/2000/svg"
   xmlns:svg="http://www.w3.org/2000/svg">
  <defs
     id="defs1" />
  <g
     id="g1"
     transform="translate(-387.08711,-256.02438)">
    <path
       style="fill:#000000"
       d="m 147.79312,685.99845 c -1.61084,-1.77995 -1.64718,-4.63021 -0.56418,-44.25 0.63666,-23.29112 1.23732,-42.43062 1.3348,-42.53221 0.70135,-0.73094 18.9645,-0.39193 19.72253,0.3661 0.52763,0.52763 3.82452,7.67767 7.32643,15.88897 3.5019,8.2113 8.89274,20.32909 11.97964,26.92842 3.0869,6.59933 5.61254,12.78683 5.61254,13.75 0,5.69695 2.94671,-0.0231 16.35568,-31.74878 4.64918,-11 9.01832,-21.2375 9.7092,-22.75 1.24489,-2.72534 1.34334,-2.75 10.98015,-2.75 h 9.724 l 0.84991,32.75 c 1.06392,40.9965 1.08975,53.87465 0.11001,54.85438 -0.42407,0.42407 -3.46269,0.96574 -6.75249,1.2037 -8.67602,0.62757 -8.97646,0.18338 -8.97646,-13.27153 0,-6.17021 -0.29588,-18.05437 -0.6575,-26.40925 l -0.65751,-15.19069 -6.18822,14.2817 c -8.83036,20.3794 -17.35337,38.07153 -18.77605,38.97546 -0.6714,0.42658 -2.86822,0.7825 -4.88183,0.79092 -2.87094,0.012 -4.21985,-0.64872 -6.25,-3.06142 -1.42389,-1.69219 -2.58889,-3.52812 -2.58889,-4.07984 0,-0.55171 -3.99228,-9.62968 -8.87173,-20.17327 -4.87946,-10.54359 -9.17636,-20.46076 -9.54867,-22.03816 -0.37232,-1.5774 -0.87205,-2.67289 -1.11051,-2.43442 -0.23847,0.23847 -0.85226,11.56059 -1.36397,25.16027 -0.62533,16.61938 -1.32706,25.20464 -2.1402,26.18442 -1.89974,2.28904 -12.19074,1.97067 -14.37668,-0.44477 z m 130.12776,1.15404 -16.784,-0.30021 -0.9769,-2.56942 c -0.59469,-1.56416 -0.87482,-18.7687 -0.716,-43.97397 l 0.2609,-41.40454 30.5,-0.11448 30.5,-0.11447 0.25717,6.86278 c 0.14144,3.77452 -0.16373,7.51203 -0.67817,8.30556 -0.77122,1.18964 -4.52104,1.41089 -21.37148,1.26097 l -20.43615,-0.18181 -0.52375,9.73902 c -0.28807,5.35647 -0.44684,9.82881 -0.35283,9.93855 0.094,0.10974 8.25022,0.27726 18.12491,0.37227 9.8747,0.095 18.52242,0.39088 19.21715,0.65747 0.85992,0.32998 1.26315,2.84476 1.26315,7.87773 v 7.39301 h -19.5 -19.5 v 10 10 h 21.87756 c 25.35074,0 24.73479,-0.22202 23.82554,8.58778 -0.86628,8.39342 -0.96886,8.44735 -15.57554,8.1881 -6.94516,-0.12327 -20.18036,-0.35922 -29.41156,-0.52434 z m 61.81372,-0.86468 c -1.36135,-1.36135 -1.51901,-6.80453 -1.29028,-44.54863 l 0.26056,-42.9978 20.04216,0.11547 c 21.84689,0.12587 26.73172,0.90563 35.5647,5.67716 20.32735,10.98071 28.07472,35.42311 18.03091,56.88623 -4.27018,9.12517 -9.75333,14.58714 -19.44345,19.36833 -9.53419,4.70427 -15.366,5.73397 -36.90404,6.51599 -12.44611,0.4519 -14.94837,0.29544 -16.26056,-1.01675 z m 40.57957,-18.00676 c 13.61234,-4.27439 20.76689,-18.97457 16.45455,-33.80851 -1.26352,-4.34636 -2.84802,-6.94636 -6.37274,-10.45701 -6.69706,-6.67033 -9.80591,-7.80961 -23.60236,-8.64945 l -11.91127,-0.72508 0.66127,13.78809 c 0.36369,7.58344 0.66126,20.20587 0.66126,28.04983 v 14.26174 l 9.75,-0.50613 c 5.3625,-0.27837 11.82418,-1.15744 14.35929,-1.95348 z m 54.39071,18.9171 c -1.1,-0.29071 -2.33061,-1.03901 -2.73469,-1.66288 -0.40408,-0.62388 -0.74158,-20.40174 -0.75,-43.95081 l -0.0153,-42.8165 23.25,0.3165 c 26.193,0.35655 28.3469,0.85164 36.7793,8.45382 12.1284,10.93423 12.0879,30.79652 -0.085,41.79411 -2.0186,1.82374 -4.4922,3.77588 -5.4968,4.33809 -1.6984,0.95043 -1.5451,1.50344 2.1828,7.87634 2.2052,3.76977 6.1702,10.3245 8.8112,14.56606 2.7924,4.48473 4.5548,8.35557 4.2116,9.25 -0.4695,1.22354 -2.3974,1.53807 -9.4277,1.53807 h -8.8374 l -8.2888,-15 -8.28882,-15 -8.65514,-6.6e-4 -8.65514,-6.5e-4 0.34141,13.80235 c 0.26372,10.66168 0.0362,14.04954 -1,14.88868 -1.59072,1.28824 -10.49145,2.36067 -13.34141,1.60748 z m 42.5699,-48.56531 c 8.2548,-5.56293 5.1686,-19.90499 -4.88418,-22.69706 -2.02714,-0.56302 -8.34636,-1.02619 -14.04271,-1.02925 -9.03474,-0.005 -10.2795,0.19636 -9.75,1.57621 0.33385,0.86998 0.60699,6.71998 0.60699,13 v 11.41821 H 461.557 c 11.18289,0 12.67068,-0.21469 15.71778,-2.26811 z m 80.9301,48.53922 c -0.825,-0.31405 -1.8306,-1.06602 -2.2347,-1.67105 -0.4041,-0.60503 -0.7416,-20.56256 -0.75,-44.35006 l -0.015,-43.25 16.25,0.008 c 8.9375,0.004 19.175,0.47095 22.75,1.03731 8.8813,1.40701 19.9015,6.80296 26.3507,12.90241 19.6655,18.59877 17.3424,51.96268 -4.6326,66.53496 -9.1979,6.09933 -15.137,7.54072 -35.2181,8.54718 -20.3598,1.02043 -20.4517,1.02142 -22.5,0.2417 z m 32.8619,-17.31852 c 16.1451,-2.61976 24.2403,-11.37989 24.4702,-26.4801 0.1363,-8.95874 -3.206,-16.28148 -9.8008,-21.47249 -5.993,-4.71729 -9.6404,-5.81463 -21.9787,-6.61232 l -10.4912,-0.67827 0.2193,28.14456 0.2193,28.14457 5.5,-0.007 c 3.025,-0.004 8.3629,-0.47136 11.8619,-1.03912 z m 84.6381,17.09127 -28,-0.54386 -0.2533,-44 -0.2532,-44 20.2532,0.0327 c 11.1393,0.018 24.6408,0.13046 30.0033,0.25 l 9.75,0.2173 v 8.58594 8.58593 l -21.5008,-0.33593 -21.5007,-0.33594 8e-4,9.75 7e-4,9.75 12.75,0.22823 c 7.0125,0.12553 15.9,0.23803 19.75,0.25 l 7,0.0218 0.293,8.41011 0.2931,8.41011 -20.0431,-0.64679 -20.043,-0.64682 v 9.98668 9.98668 h 22.5404 22.5405 l -0.2905,8.25 c -0.2831,8.04236 -0.3533,8.2511 -2.7904,8.29386 -1.375,0.0241 -15.1,-0.20088 -30.5,-0.5 z m -158.0424,-1.29386 c -0.2637,-0.6875 -0.3621,-20.6 -0.2186,-44.25 l 0.261,-43 7.5,-0.10846 c 4.125,-0.0596 7.988,0.27115 8.5845,0.73511 1.5397,1.19758 1.9637,82.98055 0.445,85.81832 -0.9595,1.7928 -2.0564,2.05503 -8.5961,2.05503 -5.0745,0 -7.6511,-0.40382 -7.9758,-1.25 z M 392.54258,557.18386 c -28.49693,-23.21547 -51.51983,-46.83867 -69.47151,-71.28291 -20.19451,-27.49824 -35.59003,-53.49501 -44.35216,-74.89273 -4.061,-9.91725 -5.35032,-12.01889 -9.95527,-16.22756 -2.90954,-2.65916 -6.58507,-7.30824 -8.16784,-10.33128 -3.43887,-6.56817 -3.5081,-6.58955 -20.39092,-6.29884 -15.35595,0.26442 -18.23016,-0.83982 -24.55733,-9.43466 -7.2655,-9.86949 -6.97811,-6.79994 -6.62993,-70.81254 0.29713,-54.628 0.41092,-57.71958 2.28,-61.94495 2.73708,-6.18762 6.22002,-10.48853 11.3546,-14.02121 7.72468,-5.31472 12.88423,-6.0295 44.01276,-6.09733 l 28.0399,-0.0611 3.00754,-4.14254 c 7.44844,-10.25937 29.07621,-26.04881 48.99246,-35.76714 20.81129,-10.15507 42.17863,-14.96134 66.5,-14.95819 53.55734,0.007 97.392,22.36804 130.2421,66.43962 7.147,9.58846 18.7102,32.57283 22.7821,45.28459 8.1024,25.2939 8.9656,56.05267 2.4869,88.61311 -4.5433,22.8334 -16.2273,50.40692 -33.8829,79.96166 -16.0435,26.85606 -27.0217,42.07042 -45.6282,63.23483 -26.41966,30.05163 -68.99587,66.45626 -77.72241,66.45626 -1.21575,0 -9.20222,-5.78415 -18.93989,-13.71709 z m 27.01296,-7.53291 c 33.53171,-25.57954 69.37654,-63.38255 90.79034,-95.75 34.427,-52.03756 48.3286,-90.483 48.2724,-133.5 -0.023,-17.75675 -1.6097,-27.00747 -7.9213,-46.18763 -5.1034,-15.50899 -9.9725,-25.20142 -19.2464,-38.31237 -19.714,-27.87066 -49.4789,-48.05771 -83.4491,-56.59643 -8.56567,-2.15307 -13.4135,-2.67789 -28.8378,-3.12199 -11.34293,-0.32659 -21.802,-0.095 -26.94033,0.59651 -25.37019,3.41429 -52.54169,15.78182 -71.76847,32.66652 -2.8875,2.53577 -5.25,5.02559 -5.25,5.53294 0,0.53304 8.58856,0.92245 20.34501,0.92245 19.03606,0 20.4608,-0.12794 22.14465,-1.98857 8.27012,-9.13839 35.44278,-17.01143 58.71246,-17.01143 10.25187,0 24.67709,2.32897 34.79788,5.61817 10.24731,3.33032 28.3188,12.54644 36.2532,18.48852 13.0312,9.75895 29.1358,29.45338 36.0691,44.10931 4.6842,9.9015 8.7212,26.29757 9.3032,37.784 0.4092,8.07646 1.0956,11.80904 2.9741,16.17143 4.1482,9.63389 6.5417,20.59393 6.592,30.18662 0.043,8.14108 -0.2262,9.38848 -3.3225,15.41159 -4.8956,9.52301 -8.7594,12.25305 -19.1662,13.5424 l -8.393,1.03983 -2.3214,4.37582 c -5.1959,9.79439 -18.3667,18.27231 -28.3867,18.27231 -3.1168,0 -7.3617,1.42872 -15.21248,5.12023 -34.85609,16.38956 -73.08973,16.26583 -106.20578,-0.34371 -8.77929,-4.40329 -25.05188,-17.11521 -29.68491,-23.18943 -1.5048,-1.9729 -3.08858,-3.58709 -3.51949,-3.58709 -0.43092,0 -1.25897,1.36397 -1.84012,3.03105 -0.58114,1.66707 -3.59994,5.69744 -6.70843,8.95637 -5.84942,6.13251 -9.038,7.7239 -20.18059,10.07198 -2.8875,0.60848 -5.25,1.65721 -5.25,2.3305 0,2.47852 13.07772,27.56197 22.21556,42.6101 10.20525,16.80591 26.21809,39.07054 36.67949,51 12.1441,13.84829 31.52147,33.16828 41.60495,41.48175 11.19908,9.23323 18.43682,14.43939 20.13971,14.48663 0.62684,0.0174 3.64677,-1.88088 6.71095,-4.21838 z M 286.38059,318.81345 c -3.23012,0 -3.46832,-2.14345 -3.48469,-12.57227 l -0.0153,-9.75 h -9.92857 c -12.13551,0 -13.07819,-0.63692 -13.05612,-8.82143 0.023,-8.5398 0.0611,-8.56397 12.48362,-7.92996 l 10.69713,0.54595 -0.67688,-8.64728 c -0.42317,-5.40614 -0.27601,-9.69324 0.39265,-11.43787 1.06498,-2.77871 1.10472,-2.78935 9.32885,-2.5 l 8.25932,0.29059 0.28383,10.75 0.28383,10.75 h 9.93099 c 11.46326,0 12.00135,0.39691 12.00135,8.85247 0,8.3033 0.23402,8.14753 -12.24069,8.14753 h -11.0267 l 0.47872,9.94173 c 0.2633,5.46795 0.19376,10.40282 -0.15454,10.96637 -0.73774,1.19371 -10.51652,1.41417 -13.55679,1.41417 z m 153.32429,82.68242 c 8.7169,-2.79318 14.23965,-5.75289 15.14703,-8.11748 0.34879,-0.90894 -0.41519,-2.29383 -1.91713,-3.47526 -1.37335,-1.08028 -3.89735,-4.14639 -5.60888,-6.81359 l -3.11189,-4.84945 -47.25456,0.45017 c -25.99002,0.24759 -47.46365,0.64287 -47.7192,0.87839 -1.83097,1.68751 8.60502,10.03068 18.46706,14.76371 15.6907,7.53034 31.67425,10.70183 50.99757,10.11904 10.45603,-0.31535 14.56552,-0.89372 21,-2.95553 z M 300.63916,386.91579 c 4.36214,-2.1299 7.95914,-6.65164 10.12852,-12.73243 1.79284,-5.02533 1.7614,-8.57054 -0.11585,-13.06453 -3.39724,-8.13274 -11.03079,-13.21788 -19.84201,-13.21788 -9.5305,0 -14.19099,2.94037 -18.22752,11.5 -2.96594,6.28941 -2.96794,9.70117 -0.009,16 5.40342,11.50399 17.73048,16.56146 28.06625,11.51484 z M 284.37919,373.5865 c -1.484,-1.57965 -2.17431,-3.5839 -2.17431,-6.31291 0,-7.5356 7.93024,-11.8709 14.02749,-7.66853 3.49323,2.40761 4.90399,4.43826 4.94071,7.11163 0.10483,7.63354 -11.58429,12.41517 -16.79389,6.86981 z m 205.39359,11.01608 c 13.4182,-9.24696 11.9904,-28.27452 -2.6834,-35.76054 -8.4866,-4.32954 -21.18901,-0.97137 -26.46134,6.99566 -4.80946,7.26758 -3.22044,17.96792 3.70763,24.96699 5.48086,5.53704 8.764,7.08838 15.01001,7.09252 4.7503,0.003 6.3964,-0.51696 10.4271,-3.29463 z m -17.64482,-11.62471 c -3.72649,-3.72648 -3.84084,-7.83277 -0.33419,-12.00019 2.18271,-2.59405 3.29301,-3.07673 7.07691,-3.07673 3.6665,0 5.0445,0.55647 7.5281,3.04006 2.5411,2.54112 2.9392,3.56689 2.4256,6.25 -1.5387,8.03726 -11.1239,11.35943 -16.69642,5.78686 z m -98.8416,-22.53291 c 0.3388,-58.39148 -0.33055,-107.20434 -1.50869,-110.02405 -0.70118,-1.67816 -2.93257,-4.50668 -4.95863,-6.28558 l -3.68375,-3.23438 -59.21521,-0.22681 c -32.56836,-0.12474 -61.65474,-0.11383 -64.6364,0.0242 -6.63573,0.3073 -10.90373,2.76708 -13.82747,7.96917 -2.15375,3.83207 -2.1736,4.3498 -2.30108,60.0198 -0.12805,55.91344 -0.1194,56.1673 2.01587,59.16601 4.02276,5.64945 5.31606,6.04758 19.6451,6.04758 h 13.1662 l 0.69478,-3.70349 c 1.65342,-8.81348 9.14258,-17.8317 18.37242,-22.1235 4.71725,-2.19349 7.06538,-2.62822 14.15538,-2.62073 7.21555,0.008 9.44623,0.44134 14.7618,2.87021 9.04039,4.13086 13.74932,9.97074 19.01146,23.57751 l 0.96683,2.5 23.62995,0.044 23.62996,0.044 z M 238.20488,255.9531 c -3.56288,-0.8285 -7.62332,-9.01894 -5.98697,-12.0765 1.43433,-2.68007 9.36036,-6.3093 11.97016,-5.48099 10.59166,3.36167 8.22888,20.86231 -5.98319,17.55749 z m 112.02701,-2.74495 c -1.64958,-2.09709 -2.05277,-3.81155 -1.82258,-7.75 0.28822,-4.93141 0.38861,-5.08019 4.03609,-5.98125 6.53521,-1.61444 11.03662,2.42616 10.93464,9.81526 -0.067,4.85626 -2.00117,6.60879 -7.29371,6.60879 -2.86564,0 -4.22987,-0.62749 -5.85444,-2.6928 z M 524.66578,363.5532 c 1.5338,-1.12157 1.8596,-2.82248 1.9411,-10.1352 l 0.098,-8.78744 -3.9556,-1.38363 c -9.2438,-3.23342 -19.3094,-18.34598 -12.2192,-18.34598 1.2789,0 4.933,2.025 8.1203,4.5 3.1873,2.475 6.191,4.5 6.6748,4.5 1.7578,0 0.8186,-4.48069 -1.7014,-8.11704 -3.111,-4.48911 -7.6032,-7.53216 -16.8955,-11.44513 -6.3767,-2.68516 -8.9102,-4.81456 -29.4578,-24.7592 -23.90618,-23.20472 -31.93961,-29.93648 -37.87338,-31.7367 -2.03072,-0.61609 -14.60472,-1.36422 -27.94222,-1.66251 l -24.25,-0.54234 v 54.13146 54.13146 h 28.86916 28.86916 l 0.58125,-3.58184 c 1.86796,-11.51091 11.77925,-21.82533 24.96685,-25.98236 10.57338,-3.33298 23.23598,0.84185 31.84278,10.49857 4.5218,5.07334 6.9244,9.7752 8.3047,16.25251 0.4528,2.12526 1.2512,2.77114 3.8193,3.08996 6.5292,0.81059 8.4017,0.69601 10.2077,-0.62459 z M 403.60747,326.50769 c -0.30841,-0.80371 -0.41267,-2.50651 -0.23167,-3.78401 0.32155,-2.26959 0.58074,-2.32273 11.32908,-2.32273 h 11 v 3.5 3.5 l -10.76833,0.28402 c -8.70933,0.22971 -10.87555,0.005 -11.32908,-1.17728 z m -0.40259,-38.10674 v -17.5 h 16.78856 c 14.36806,0 17.31237,0.26706 20.42175,1.85231 6.86403,3.49948 32.78969,29.1577 32.78969,32.45144 0,0.38294 -15.75,0.69625 -35,0.69625 h -35 z m 114.2259,9.39226 c -0.363,-5.81833 -5.6588,-22.82216 -9.4576,-30.36637 -13.2764,-26.36668 -40.54925,-46.45473 -72.7683,-53.59806 -16.22481,-3.59722 -42.76859,-1.863 -54.74868,3.57697 l -5.24867,2.38334 4.74867,6.4845 c 2.61178,3.56647 4.97368,6.51318 5.24868,6.54823 0.275,0.035 1.53903,-1.75556 2.80895,-3.97912 4.09304,-7.16669 6.44048,-7.93373 24.29317,-7.93801 14.53001,-0.003 15.8356,0.15142 19,2.25433 4.29193,2.85222 7.89788,9.87258 7.89788,15.37627 0,3.98588 0.2001,4.27448 3.75,5.40857 10.54006,3.36723 15.52761,7.2023 37.75,29.02701 14.753,14.48894 23.8872,22.66805 27.7289,24.82949 3.1509,1.77275 6.0046,3.66936 6.3416,4.21468 1.4313,2.31588 2.9161,-0.0447 2.6554,-4.22183 z m -93.48566,-55.91939 c 0.14145,-0.81008 -0.31827,-2.59787 -1.02161,-3.97287 -1.25483,-2.45315 -1.46564,-2.49345 -11.24871,-2.15042 -5.48346,0.19226 -10.48259,0.7685 -11.10918,1.28053 -1.05761,0.86424 -2.41974,5.4797 -1.7992,6.09639 0.15137,0.15042 5.82064,0.26129 12.59837,0.24637 10.05523,-0.0221 12.37048,-0.29819 12.58033,-1.5 z M 194.98534,522.16715 c -6.91928,-0.54729 -10.64636,-5.91122 -7.80124,-11.22737 0.93265,-1.74267 3.94531,-1.83035 63.33787,-1.84348 34.29726,-0.008 62.99411,0.37911 63.77078,0.85933 2.16078,1.33601 1.69679,9.89839 -0.62852,11.5987 -1.49904,1.09613 -12.26936,1.31309 -57.90048,1.16637 -30.83238,-0.0991 -58.18266,-0.34823 -60.77841,-0.55355 z m -70.11928,-75.0881 c -2.21115,-2.44329 -2.10594,-6.73334 0.22222,-9.0615 1.71086,-1.71086 4.29895,-1.9467 28.25,-2.57426 14.50163,-0.37997 44.94579,-0.54493 67.65369,-0.36659 46.47465,0.36499 43.41746,-0.22722 42.97286,8.32425 l -0.25995,5 -68.58882,0.25684 c -65.45235,0.2451 -68.66478,0.17291 -70.25,-1.57874 z m 33.41555,-115.76699 c -4.15497,-3.49618 -4.36123,-9.25556 -0.44187,-12.33853 2.36881,-1.86331 3.99214,-2.07258 16.07692,-2.07258 h 13.44207 l 2.92307,2.92308 c 3.98408,3.98408 3.92967,8.05214 -0.15365,11.48803 -2.96059,2.49117 -3.56161,2.58889 -15.92327,2.58889 -12.36166,0 -12.96268,-0.0977 -15.92327,-2.58889 z m 433.92327,0.38211 c -4.2686,-2.87526 -5.2471,-8.03153 -2.2311,-11.75619 1.7186,-2.12236 2.8471,-2.3485 14.0151,-2.80845 14.0507,-0.57868 17.0756,0.2386 19.8329,5.35857 2.0926,3.88584 1.5641,5.44006 -3.0138,8.86267 -2.3038,1.72238 -4.5298,2.1022 -13.9227,2.37557 -10.377,0.302 -11.4319,0.15597 -14.6804,-2.03217 z m 54.2742,1.48519 c -6.1287,-0.76284 -9.3862,-8.5216 -5.5242,-13.1575 1.6134,-1.93673 2.9069,-2.12097 16.575,-2.36079 l 14.8249,-0.26012 2.4251,2.80576 c 3.2401,3.74885 3.0809,7.19218 -0.4981,10.77116 -2.8954,2.89546 -3.0253,2.92157 -13.75,2.76304 -5.9548,-0.088 -12.2785,-0.34072 -14.0527,-0.56155 z"
       id="path1" />
    <path
       id="path2"
       style="fill:#d40000;stroke-width:0;stroke-linecap:round;paint-order:markers fill stroke"
       d="m 404.33594,173.31445 c -30.41344,0.57625 -60.21658,12.62639 -83.24466,32.35602 -1.74367,1.52849 -3.53392,3.04762 -5.14232,4.70158 -0.82246,1.67704 -1.11857,3.87765 0.1487,5.42092 1.58606,1.93833 4.28911,2.21219 6.62358,2.37126 1.84623,0.0884 3.7013,0.089 5.54104,0.21507 8.55572,-0.41211 17.21567,1.27357 25.69105,-0.50545 2.0476,-0.4545 4.11138,-1.03662 5.96806,-2.01101 6.86538,-5.79504 15.46698,-9.01798 24.09374,-11.13595 1.98299,-0.49787 4.09397,-0.94117 6.03175,-1.33627 4.37766,-0.82347 8.75658,-1.68066 13.17933,-2.22246 10.01451,-1.1409 20.17979,-0.84985 30.12926,0.74004 0.48822,0.086 1.47632,0.25284 1.96289,0.33203 31.17634,5.52092 60.24985,24.12425 77.46235,50.95138 4.44701,6.05228 7.83902,12.83417 10.30971,19.91598 2.58872,7.3491 4.2865,15.01811 5.63415,22.62883 0.94933,5.35622 1.7051,10.67322 2.53324,16.04678 1.84892,7.00554 3.87763,13.96979 5.37305,21.06641 1.61564,7.71624 2.58637,15.86726 1.62522,23.80997 -0.20028,1.49591 -0.30949,3.0341 -1.0257,4.39279 -1.89118,4.39241 -4.43398,8.80083 -8.53841,11.46259 -2.06534,1.3611 -4.53721,1.9291 -6.98504,1.987 -5.29401,0.41292 -10.77201,2.25633 -14.36809,6.33536 -1.06889,1.14738 -1.83922,2.52978 -2.58852,3.88617 -6.71857,8.08331 -16.51257,13.70311 -27.02144,14.80248 -8.02622,2.77058 -15.91983,5.94502 -23.95253,8.71236 -11.23277,3.89291 -23.01234,7.12885 -35.03724,7.3566 -2.85992,0.10593 -5.7129,-0.22125 -8.57104,-0.0806 -3.41495,0.039 -6.68737,-0.094 -10.06846,-0.38933 -1.24527,-0.10479 -2.86268,-0.29323 -4.08984,-0.44336 -1.81314,-0.24003 -3.62888,-0.52188 -5.47852,-0.85937 -0.50931,-0.10522 -1.25351,-0.23741 -1.81605,-0.35597 -2.96564,-0.5985 -5.96832,-1.35313 -8.78765,-2.18499 -17.62864,-5.1985 -33.86207,-15.07742 -46.51739,-28.41217 -1.53259,-2.5217 -4.07178,-4.8616 -7.18827,-4.85136 -2.63364,-0.0237 -4.81249,2.04373 -5.69493,4.40358 -0.41652,0.89423 -0.44311,1.94461 -1.15382,2.68355 -4.84892,6.86848 -12.20857,12.11909 -20.54157,13.6825 -1.99381,0.37634 -4.17049,0.40412 -5.86104,1.68186 -2.48035,1.66249 -3.27454,5.02634 -2.42311,7.78796 0.36292,1.43354 1.16615,2.70125 2.02256,3.87962 19.15018,39.70676 44.19781,76.79227 75.44048,107.99802 6.19455,6.24304 12.7635,12.09214 19.26884,18.00575 7.90554,7.15764 16.0875,14.21241 25.5957,19.17579 16.8694,-10.65575 31.59352,-24.26535 45.80681,-38.16952 3.91571,-3.87809 7.89461,-7.69515 11.72524,-11.65738 27.66496,-28.89751 51.3696,-61.76814 68.78193,-97.83678 4.6125,-9.59378 8.83218,-19.3855 12.44913,-29.3987 8.55271,-24.75735 12.04291,-51.43598 8.84611,-77.4986 -1.75181,-14.365 -5.63471,-28.55101 -11.67172,-41.67145 -12.68527,-29.07695 -34.99126,-53.81006 -62.48167,-69.61016 -14.30781,-8.21063 -30.07166,-13.98738 -46.39602,-16.48766 -10.52881,-1.29981 -21.14645,-1.69006 -31.74875,-1.67671 -1.28322,-0.0234 -2.56689,-0.0116 -3.85012,0.005 z" />
    <path
       style="fill:#333333;stroke-width:0;stroke-linecap:round;paint-order:markers fill stroke"
       d="m 476.40163,346.16282 c -11.34367,0.49122 -21.70744,11.28747 -18.61601,22.97965 0.91112,9.16741 9.25747,16.84432 17.66621,19.4844 16.85482,3.50915 31.61107,-18.32229 20.87381,-32.28766 -4.36148,-6.43655 -12.08142,-10.65507 -19.92401,-10.17639 z m 2.4749,13.40027 c 6.1629,-0.51284 12.41345,6.49113 6.48846,11.49797 -5.15964,7.41654 -19.65836,-0.0886 -13.1289,-8.50475 1.25271,-2.37936 4.13834,-3.13904 6.64044,-2.99322 z"
       id="path6" />
    <path
       style="fill:#f2f2f2;stroke-width:0;stroke-linecap:round;paint-order:markers fill stroke"
       d="m 263.82952,95.113502 c 0.0603,35.754468 -0.12029,71.608708 0.0902,107.300948 18.49305,-0.35035 37.05941,0.71198 55.51184,-0.57312 4.13166,-0.12707 1.97813,-5.01671 3.89818,-7.24997 5.91412,-14.58557 22.86736,-25.75956 38.69604,-21.52435 12.50837,3.404 22.05782,14.12122 25.69321,26.3482 1.65255,5.30766 8.63139,3.87834 12.79063,3.30668 2.96878,-1.55595 1.54617,-6.35943 2.45576,-9.08664 0.12816,-4.57678 2.68868,-10.65535 -3.95955,-11.26976 -6.2456,-3.47387 -13.2461,-8.9215 -14.23762,-16.43651 1.09205,-4.00248 6.27682,-0.48232 8.35944,0.70512 3.15442,1.50189 6.02078,5.19068 9.34025,5.65595 0.14719,-5.42617 -4.54546,-10.26975 -8.87554,-13.13837 -9.36852,-5.12137 -19.21845,-9.71557 -26.55811,-17.76074 -15.2718,-13.79833 -29.33538,-29.09301 -45.8917,-41.38508 -9.11998,-5.442984 -20.42112,-3.079258 -30.50941,-4.2755 -8.92286,-0.208273 -17.94245,-0.592503 -26.80365,-0.616858 z m 32.75605,14.907648 c 8.85307,0.38682 19.4541,-1.82905 26.16106,5.58744 9.73049,8.77328 19.84434,17.55995 27.41756,28.30146 -2.58325,1.27206 -7.43256,0.33328 -10.66179,0.80216 -20.02911,0.35041 -40.0625,0.14948 -60.09354,0.20371 0,-11.63159 0,-23.26318 0,-34.89477 5.72557,0 11.45114,0 17.17671,0 z m 5.74116,48.76313 c 1.26715,6.62512 -0.58142,10.13452 -7.69944,8.37448 -4.52858,-0.65129 -10.02649,1.24512 -14.08055,-1.20471 -1.89966,-2.37119 -0.96262,-6.82248 2.70683,-6.35772 6.3109,-0.83037 12.71212,-0.84666 19.07316,-0.81205 z"
       id="path7"
       transform="translate(123.27272,160.91088)" />
  </g>
</svg>
